<svg width="45" height="29" viewBox="0 0 45 29" fill="none" xmlns="http://www.w3.org/2000/svg">
<ellipse cx="24.0669" cy="13" rx="10" ry="10.0246" transform="rotate(-90 24.0669 13)" fill="url(#paint0_linear_2823:177)" fill-opacity="0.5"/>
<ellipse cx="24.0668" cy="13" rx="9.29438" ry="9.27152" fill="url(#paint1_linear_2823:177)"/>
<path opacity="0.2" d="M14.8719 17.4946C13.1172 19.108 10.5054 22.1969 13.7646 22.27C20.9142 22.4303 34.1153 13.3902 36.4688 8.11474C37.9881 4.70921 34.2346 6.10951 32.1747 6.80966" stroke="url(#paint2_linear_2823:177)" stroke-width="3"/>
<path opacity="0.3" d="M14.2506 9.65855C11.8442 9.77569 7.76495 10.4868 10.0141 12.6661C14.9479 17.4468 30.8114 18.9844 36.2899 16.3979C39.8265 14.7282 36.1624 13.3774 34.201 12.5827" stroke="url(#paint3_linear_2823:177)" stroke-width="3"/>
<g filter="url(#filter0_f_2823:177)">
<path d="M31.3449 16.0596L31.6532 17.0061H32.6509L31.8438 17.5911L32.1521 18.5377L31.3449 17.9527L30.5377 18.5377L30.8461 17.5911L30.0389 17.0061H31.0366L31.3449 16.0596Z" fill="white" fill-opacity="0.6"/>
</g>
<ellipse rx="1.82369" ry="0.484083" transform="matrix(0.746919 -0.664915 0.666741 0.74529 18.5819 6.89135)" fill="white" fill-opacity="0.4"/>
<ellipse rx="0.94514" ry="0.484561" transform="matrix(0.394246 -0.919005 0.919706 0.392608 16.5202 9.55554)" fill="white" fill-opacity="0.4"/>
<g opacity="0.7" filter="url(#filter1_f_2823:177)">
<path d="M35.4648 8.66211L35.7731 9.60866L36.7708 9.60866L35.9637 10.1937L36.272 11.1402L35.4648 10.5552L34.6576 11.1402L34.9659 10.1937L34.1588 9.60866L35.1565 9.60866L35.4648 8.66211Z" fill="white"/>
</g>
<g filter="url(#filter2_f_2823:177)">
<path d="M13.5847 18.0684L13.893 19.0149H14.8907L14.0835 19.5999L14.3918 20.5465L13.5847 19.9615L12.7775 20.5465L13.0858 19.5999L12.2786 19.0149H13.2764L13.5847 18.0684Z" fill="white" fill-opacity="0.4"/>
</g>
<g filter="url(#filter3_f_2823:177)">
<path d="M9.37324 10.0317L9.68155 10.9783H10.6793L9.8721 11.5633L10.1804 12.5098L9.37324 11.9248L8.56607 12.5098L8.87438 11.5633L8.06721 10.9783H9.06493L9.37324 10.0317Z" fill="white" fill-opacity="0.4"/>
</g>
<defs>
<filter id="filter0_f_2823:177" x="22.0388" y="8.05957" width="18.6121" height="18.478" filterUnits="userSpaceOnUse" color-interpolation-filters="sRGB">
<feFlood flood-opacity="0" result="BackgroundImageFix"/>
<feBlend mode="normal" in="SourceGraphic" in2="BackgroundImageFix" result="shape"/>
<feGaussianBlur stdDeviation="4" result="effect1_foregroundBlur_2823:177"/>
</filter>
<filter id="filter1_f_2823:177" x="26.1587" y="0.662109" width="18.6121" height="18.478" filterUnits="userSpaceOnUse" color-interpolation-filters="sRGB">
<feFlood flood-opacity="0" result="BackgroundImageFix"/>
<feBlend mode="normal" in="SourceGraphic" in2="BackgroundImageFix" result="shape"/>
<feGaussianBlur stdDeviation="4" result="effect1_foregroundBlur_2823:177"/>
</filter>
<filter id="filter2_f_2823:177" x="4.27856" y="10.0684" width="18.6121" height="18.478" filterUnits="userSpaceOnUse" color-interpolation-filters="sRGB">
<feFlood flood-opacity="0" result="BackgroundImageFix"/>
<feBlend mode="normal" in="SourceGraphic" in2="BackgroundImageFix" result="shape"/>
<feGaussianBlur stdDeviation="4" result="effect1_foregroundBlur_2823:177"/>
</filter>
<filter id="filter3_f_2823:177" x="0.0671387" y="2.03174" width="18.6121" height="18.478" filterUnits="userSpaceOnUse" color-interpolation-filters="sRGB">
<feFlood flood-opacity="0" result="BackgroundImageFix"/>
<feBlend mode="normal" in="SourceGraphic" in2="BackgroundImageFix" result="shape"/>
<feGaussianBlur stdDeviation="4" result="effect1_foregroundBlur_2823:177"/>
</filter>
<linearGradient id="paint0_linear_2823:177" x1="17.1132" y1="6.06241" x2="30.9894" y2="20.335" gradientUnits="userSpaceOnUse">
<stop stop-color="#ED00FF"/>
<stop offset="1" stop-color="#00FBFF"/>
</linearGradient>
<linearGradient id="paint1_linear_2823:177" x1="14.7725" y1="3.72852" x2="26.1759" y2="25.9576" gradientUnits="userSpaceOnUse">
<stop stop-color="#FFBBF8"/>
<stop offset="1" stop-color="#BEFFFB"/>
</linearGradient>
<linearGradient id="paint2_linear_2823:177" x1="19.2149" y1="11.1735" x2="28.85" y2="20.6949" gradientUnits="userSpaceOnUse">
<stop stop-color="white" stop-opacity="0"/>
<stop offset="1" stop-color="white"/>
</linearGradient>
<linearGradient id="paint3_linear_2823:177" x1="21.5951" y1="9.80386" x2="20.4107" y2="18.5718" gradientUnits="userSpaceOnUse">
<stop stop-color="white" stop-opacity="0"/>
<stop offset="1" stop-color="white"/>
</linearGradient>
</defs>
</svg>
