<svg width="240" height="241" viewBox="0 0 240 241" fill="none" xmlns="http://www.w3.org/2000/svg">
<ellipse cx="124.908" cy="125.214" rx="67.4345" ry="68.1348" transform="rotate(-44.3784 124.908 125.214)" fill="url(#paint0_linear_3054:483)" fill-opacity="0.5"/>
<ellipse cx="124.908" cy="125.214" rx="63.1713" ry="62.5221" transform="rotate(30 124.908 125.214)" fill="url(#paint1_linear_3054:483)"/>
<path opacity="0.2" d="M59.5352 101.743C43.4178 100.829 16.1144 102.709 31.2549 118.886C64.4686 154.374 170.793 175.867 207.407 162.42C231.043 153.739 206.451 142.109 193.285 135.405" stroke="url(#paint2_linear_3054:483)" stroke-width="3"/>
<path opacity="0.3" d="M94.3517 61.7674C82.3478 50.6296 59.5294 34.1672 59.7171 55.3713C60.1288 101.887 128.126 186.201 166.635 200.616C191.494 209.921 180.587 185.751 175.094 172.475" stroke="url(#paint3_linear_3054:483)" stroke-width="3"/>
<g filter="url(#filter0_f_3054:483)">
<path d="M144.76 174.999L141.663 180.961L146.406 185.808L139.75 184.646L136.653 190.608L135.636 183.928L128.979 182.766L135.007 179.799L133.989 173.119L138.732 177.966L144.76 174.999Z" fill="white" fill-opacity="0.6"/>
</g>
<ellipse rx="12.3523" ry="3.27588" transform="matrix(0.997353 0.0727079 -0.0624682 0.998047 128.278 69.7578)" fill="white" fill-opacity="0.2"/>
<ellipse rx="6.38137" ry="3.28947" transform="matrix(0.933608 -0.358297 0.365264 0.930904 105.636 72.3082)" fill="white" fill-opacity="0.2"/>
<g opacity="0.7" filter="url(#filter1_f_3054:483)">
<path d="M199.997 160.125L196.9 166.087L201.643 170.933L194.986 169.771L191.89 175.733L190.872 169.053L184.216 167.891L190.244 164.924L189.226 158.244L193.969 163.091L199.997 160.125Z" fill="white"/>
</g>
<g filter="url(#filter2_f_3054:483)">
<path d="M50.6501 98.1968L47.5535 104.159L52.2963 109.006L45.6397 107.843L42.5431 113.805L41.5258 107.125L34.8692 105.963L40.897 102.997L39.8796 96.3165L44.6224 101.163L50.6501 98.1968Z" fill="white" fill-opacity="0.4"/>
</g>
<g filter="url(#filter3_f_3054:483)">
<path d="M69.3659 39.8361L66.2693 45.7981L71.0121 50.6448L64.3555 49.4828L61.2589 55.4448L60.2416 48.7646L53.585 47.6025L59.6128 44.636L58.5954 37.9558L63.3382 42.8026L69.3659 39.8361Z" fill="white" fill-opacity="0.4"/>
</g>
<defs>
<filter id="filter0_f_3054:483" x="120.979" y="165.119" width="33.427" height="33.489" filterUnits="userSpaceOnUse" color-interpolation-filters="sRGB">
<feFlood flood-opacity="0" result="BackgroundImageFix"/>
<feBlend mode="normal" in="SourceGraphic" in2="BackgroundImageFix" result="shape"/>
<feGaussianBlur stdDeviation="4" result="effect1_foregroundBlur_3054:483"/>
</filter>
<filter id="filter1_f_3054:483" x="176.216" y="150.244" width="33.4272" height="33.489" filterUnits="userSpaceOnUse" color-interpolation-filters="sRGB">
<feFlood flood-opacity="0" result="BackgroundImageFix"/>
<feBlend mode="normal" in="SourceGraphic" in2="BackgroundImageFix" result="shape"/>
<feGaussianBlur stdDeviation="4" result="effect1_foregroundBlur_3054:483"/>
</filter>
<filter id="filter2_f_3054:483" x="24.4978" y="83.8523" width="40.3606" height="40.3766" filterUnits="userSpaceOnUse" color-interpolation-filters="sRGB">
<feFlood flood-opacity="0" result="BackgroundImageFix"/>
<feBlend mode="normal" in="SourceGraphic" in2="BackgroundImageFix" result="shape"/>
<feGaussianBlur stdDeviation="4" result="effect1_foregroundBlur_3054:483"/>
</filter>
<filter id="filter3_f_3054:483" x="43.2136" y="25.4916" width="40.3606" height="40.3766" filterUnits="userSpaceOnUse" color-interpolation-filters="sRGB">
<feFlood flood-opacity="0" result="BackgroundImageFix"/>
<feBlend mode="normal" in="SourceGraphic" in2="BackgroundImageFix" result="shape"/>
<feGaussianBlur stdDeviation="4" result="effect1_foregroundBlur_3054:483"/>
</filter>
<linearGradient id="paint0_linear_3054:483" x1="78.0168" y1="78.0613" x2="172.347" y2="174.326" gradientUnits="userSpaceOnUse">
<stop stop-color="#ED00FF"/>
<stop offset="1" stop-color="#00FBFF"/>
</linearGradient>
<linearGradient id="paint1_linear_3054:483" x1="61.737" y1="62.692" x2="138.282" y2="213.082" gradientUnits="userSpaceOnUse">
<stop stop-color="#FFBBF8"/>
<stop offset="1" stop-color="#BEFFFB"/>
</linearGradient>
<linearGradient id="paint2_linear_3054:483" x1="110.646" y1="93.0289" x2="109.835" y2="184.734" gradientUnits="userSpaceOnUse">
<stop stop-color="white" stop-opacity="0"/>
<stop offset="1" stop-color="white"/>
</linearGradient>
<linearGradient id="paint3_linear_3054:483" x1="128.564" y1="98.1313" x2="80.7489" y2="133.83" gradientUnits="userSpaceOnUse">
<stop stop-color="white" stop-opacity="0"/>
<stop offset="1" stop-color="white"/>
</linearGradient>
</defs>
</svg>
